<?xml version="1.0" encoding="UTF-8"?>
<svg xmlns="http://www.w3.org/2000/svg" width="512" height="512" viewBox="0 0 512 512" shape-rendering="crispEdges">
  <rect width="512" height="512" fill="none"/>

  <!-- Cute pixel whale for desktop pet -->
  <g>
    <!-- Body -->
    <rect x="96" y="160" width="256" height="32" fill="#4A7DFF"/>
    <rect x="64" y="192" width="320" height="32" fill="#4A7DFF"/>
    <rect x="48" y="224" width="336" height="32" fill="#4A7DFF"/>
    <rect x="32" y="256" width="352" height="32" fill="#4A7DFF"/>
    <rect x="32" y="288" width="336" height="32" fill="#4A7DFF"/>
    <rect x="48" y="320" width="304" height="32" fill="#4A7DFF"/>
    <rect x="80" y="352" width="240" height="32" fill="#4A7DFF"/>

    <!-- Full tail -->
    <rect x="352" y="224" width="32" height="32" fill="#4A7DFF"/>
    <rect x="384" y="192" width="32" height="32" fill="#4A7DFF"/>
    <rect x="416" y="160" width="32" height="32" fill="#4A7DFF"/>
    <rect x="384" y="224" width="64" height="32" fill="#4A7DFF"/>
    <rect x="416" y="256" width="32" height="32" fill="#4A7DFF"/>
    <rect x="384" y="288" width="32" height="32" fill="#4A7DFF"/>
    <rect x="352" y="288" width="32" height="32" fill="#4A7DFF"/>

    <!-- Belly -->
    <rect x="64" y="288" width="192" height="32" fill="#F4F8FF"/>
    <rect x="96" y="320" width="160" height="32" fill="#F4F8FF"/>
    <rect x="128" y="352" width="128" height="32" fill="#F4F8FF"/>

    <!-- Eye -->
    <rect x="128" y="240" width="32" height="32" fill="#102060"/>
    <rect x="144" y="240" width="16" height="16" fill="#FFFFFF"/>

    <!-- Blush -->
    <rect x="176" y="272" width="32" height="16" fill="#FF9AC0"/>

    <!-- Smile -->
    <rect x="176" y="288" width="32" height="8" fill="#102060"/>

    <!-- Fin -->
    <rect x="224" y="320" width="64" height="32" fill="#3767E8"/>
    <rect x="240" y="352" width="32" height="16" fill="#3767E8"/>
  </g>
</svg>
